<?xml version="1.0" standalone="no"?>
<!DOCTYPE svg PUBLIC "-//W3C//DTD SVG 20010904//EN"
 "http://www.w3.org/TR/2001/REC-SVG-20010904/DTD/svg10.dtd">
<svg version="1.0" xmlns="http://www.w3.org/2000/svg"
 width="1380.000000pt" height="286.000000pt" viewBox="0 0 1380.000000 286.000000"
 preserveAspectRatio="xMidYMid meet">

<g transform="translate(0.000000,286.000000) scale(0.100000,-0.100000)"
fill="#000000" stroke="none">
<path d="M12500 2252 c-25 -2 -49 -7 -54 -13 -6 -5 -18 -9 -27 -9 -17 0 -74
-28 -176 -86 -23 -13 -49 -24 -58 -24 -8 0 -18 -7 -21 -15 -4 -8 -10 -15 -16
-15 -5 0 -6 5 -2 11 4 7 1 10 -7 7 -8 -3 -13 -14 -11 -24 2 -15 1 -16 -7 -4
-8 12 -13 11 -28 -6 -10 -12 -26 -20 -35 -18 -20 3 -52 -41 -42 -58 4 -7 3 -8
-4 -4 -6 4 -18 -6 -27 -24 -8 -16 -20 -30 -25 -30 -6 0 -10 -5 -10 -11 0 -15
-36 -60 -42 -53 -3 3 -9 -8 -13 -23 -7 -26 -8 -26 -16 -8 -8 19 -8 19 -15 -2
-3 -13 -10 -23 -15 -23 -5 0 -9 -7 -9 -15 0 -8 -8 -15 -17 -15 -14 0 -15 -2
-4 -9 7 -5 10 -14 7 -20 -4 -6 -3 -11 2 -11 6 0 13 11 16 25 4 14 11 25 16 25
24 0 -2 -42 -62 -103 -21 -21 -38 -45 -38 -53 0 -8 -12 -26 -26 -39 -24 -22
-26 -53 -2 -39 7 4 8 2 4 -4 -7 -12 20 -62 34 -62 4 0 18 21 31 46 13 26 30
48 39 51 8 2 27 11 42 19 38 21 45 0 9 -27 -17 -12 -28 -26 -25 -31 3 -4 -3
-8 -12 -8 -10 0 -31 -15 -48 -34 l-31 -33 24 -37 c13 -20 27 -36 31 -36 5 0
94 43 199 96 151 75 191 99 191 115 0 11 38 77 85 147 l86 127 82 42 82 42
142 0 143 1 249 125 c137 68 252 129 256 135 9 15 -16 12 -49 -5 -28 -15 -29
-15 -14 2 16 17 1 18 -360 18 -207 0 -397 -1 -422 -3z m180 -12 c0 -5 -5 -10
-11 -10 -5 0 -7 5 -4 10 3 6 8 10 11 10 2 0 4 -4 4 -10z m-223 -87 c-9 -9 -17
-11 -21 -5 -3 6 2 18 11 28 12 12 18 13 21 4 2 -6 -2 -19 -11 -27z m223 13 c0
-3 -4 -8 -10 -11 -5 -3 -10 -1 -10 4 0 6 5 11 10 11 6 0 10 -2 10 -4z m-180
-26 c0 -5 -9 -10 -20 -10 -11 0 -20 5 -20 10 0 6 9 10 20 10 11 0 20 -4 20
-10z m265 -70 c3 -5 1 -10 -4 -10 -6 0 -11 5 -11 10 0 6 2 10 4 10 3 0 8 -4
11 -10z m215 6 c0 -2 -7 -7 -16 -10 -8 -3 -12 -2 -9 4 6 10 25 14 25 6z m-41
-20 c-2 -2 -15 -9 -29 -15 -24 -11 -24 -11 -6 3 16 13 49 24 35 12z m-439 -16
c0 -5 -5 -10 -11 -10 -5 0 -7 5 -4 10 3 6 8 10 11 10 2 0 4 -4 4 -10z m-340
-4 c0 -2 -7 -6 -15 -10 -8 -3 -15 -1 -15 4 0 6 7 10 15 10 8 0 15 -2 15 -4z
m470 -42 c0 -2 -12 -4 -27 -4 -21 0 -24 3 -14 9 13 8 41 5 41 -5z m197 4 c-16
-10 -187 -10 -187 0 0 4 45 7 99 7 55 0 94 -3 88 -7z m-749 -14 c-3 -19 -34
-41 -43 -32 -4 4 -4 16 0 27 8 25 48 29 43 5z m442 2 c0 -9 -30 -14 -35 -6 -4
6 3 10 14 10 12 0 21 -2 21 -4z m-41 -20 c-2 -2 -19 -11 -36 -20 -28 -14 -32
-14 -27 -1 3 8 10 13 14 10 5 -3 11 -1 15 5 3 5 13 10 22 10 9 0 14 -2 12 -4z
m-358 -39 c-16 -16 -26 0 -10 19 9 11 15 12 17 4 2 -6 -1 -17 -7 -23z m239 18
c0 -8 -7 -15 -16 -15 -14 0 -14 3 -4 15 7 8 14 15 16 15 2 0 4 -7 4 -15z
m-210 -25 c0 -5 -5 -10 -11 -10 -5 0 -7 5 -4 10 3 6 8 10 11 10 2 0 4 -4 4
-10z m184 -72 c-17 -27 -29 -38 -32 -29 -3 8 2 19 10 25 8 6 20 22 27 34 7 13
15 22 18 19 2 -3 -8 -25 -23 -49z m-31 17 c-5 -16 -33 -21 -33 -7 0 13 22 32
31 26 5 -2 6 -11 2 -19z m-81 -43 c4 -12 -1 -18 -13 -19 -22 -2 -24 8 -7 25
15 15 15 15 20 -6z m-167 -12 c3 -5 1 -10 -4 -10 -6 0 -11 5 -11 10 0 6 2 10
4 10 3 0 8 -4 11 -10z m189 -35 c-7 -17 -20 -20 -28 -6 -7 10 3 21 20 21 8 0
11 -6 8 -15z m-266 -35 c0 -22 -4 -42 -8 -45 -8 -5 -11 65 -3 78 9 14 12 6 11
-33z m212 20 c0 -5 -7 -10 -16 -10 -8 0 -12 5 -9 10 3 6 10 10 16 10 5 0 9 -4
9 -10z m-76 -35 c6 -18 -9 -65 -22 -65 -19 0 -20 14 -4 38 9 15 11 23 5 19
-13 -8 -18 5 -6 16 10 11 20 8 27 -8z m68 0 c0 -5 -5 -11 -11 -13 -6 -2 -11 4
-11 13 0 9 5 15 11 13 6 -2 11 -8 11 -13z m78 6 c0 -5 -7 -11 -14 -14 -10 -4
-13 -1 -9 9 6 15 23 19 23 5z m-310 -20 c0 -10 -7 -21 -15 -25 -15 -5 -22 24
-8 37 12 13 23 7 23 -12z m120 -20 c-14 -27 -27 -34 -36 -20 -4 7 1 18 11 26
27 19 37 16 25 -6z m-223 -10 c11 -18 8 -31 -8 -31 -5 0 -6 7 -3 15 4 8 1 15
-5 15 -6 0 -11 5 -11 10 0 16 14 11 27 -9z m364 -14 c-10 -9 -11 -8 -5 6 3 10
9 15 12 12 3 -3 0 -11 -7 -18z m-417 -11 c-6 -16 -24 -23 -24 -8 0 10 22 33
27 28 2 -2 1 -11 -3 -20z m96 -10 c0 -3 -4 -8 -10 -11 -5 -3 -10 -1 -10 4 0 6
5 11 10 11 6 0 10 -2 10 -4z m154 -27 c-3 -5 -10 -7 -15 -3 -5 3 -7 10 -3 15
3 5 10 7 15 3 5 -3 7 -10 3 -15z m-236 -19 c-1 -16 -7 -31 -15 -34 -14 -6 -16
6 -7 42 9 32 23 27 22 -8z m372 12 c0 -5 -17 -16 -37 -26 -41 -19 -39 -13 4
15 34 21 33 21 33 11z m-194 -29 c-10 -10 -19 5 -10 18 6 11 8 11 12 0 2 -7 1
-15 -2 -18z m-219 -44 c2 -16 1 -18 -11 -7 -7 7 -11 19 -9 26 7 16 16 8 20
-19z m243 -14 c0 -2 -10 -9 -22 -15 -22 -11 -22 -10 -4 4 21 17 26 19 26 11z
m-155 -44 c-3 -5 7 -12 22 -14 26 -4 26 -4 -4 -6 -31 -1 -41 7 -26 22 9 10 15
8 8 -2z m-15 -35 c0 -11 -19 -15 -25 -6 -3 5 1 10 9 10 9 0 16 -2 16 -4z"/>
<path d="M13380 2186 c0 -4 12 -23 26 -42 15 -19 25 -36 23 -39 -3 -2 -13 9
-24 25 -11 17 -25 32 -32 34 -12 5 -113 -43 -125 -59 -4 -5 -8 -7 -8 -2 0 9
-142 -61 -151 -75 -3 -4 -14 -10 -25 -12 -20 -4 -105 -45 -114 -55 -3 -4 -9
-7 -15 -8 -5 -1 -23 -8 -38 -16 -26 -14 -27 -16 -11 -25 16 -9 13 -17 -34 -87
-29 -42 -52 -80 -52 -85 0 -4 -7 -13 -15 -20 -8 -7 -12 -16 -9 -21 5 -9 -50
-66 -89 -92 -12 -7 -43 -22 -69 -32 -27 -10 -48 -21 -48 -25 0 -5 -73 -9 -162
-9 -142 -1 -168 -4 -208 -22 -26 -12 -54 -33 -64 -48 -10 -14 -15 -18 -12 -8
3 9 3 17 0 17 -18 0 -154 -77 -154 -87 0 -7 -5 -13 -11 -13 -5 0 -7 5 -4 10 3
6 2 10 -4 10 -5 0 -13 -5 -16 -10 -8 -13 -125 -73 -125 -64 0 4 -8 1 -17 -7
-10 -8 -35 -24 -55 -34 -21 -11 -38 -24 -38 -30 0 -5 -4 -4 -9 4 -7 11 -12 10
-28 -6 -10 -10 -34 -25 -53 -33 -19 -7 -42 -19 -50 -25 -8 -7 -24 -15 -35 -19
-11 -3 -35 -19 -54 -35 -25 -21 -32 -34 -27 -47 4 -10 4 -15 0 -11 -4 4 -16 0
-26 -9 -14 -13 -15 -20 -7 -31 9 -10 9 -12 -2 -8 -9 3 -21 -9 -34 -32 -11 -21
-23 -36 -27 -33 -11 8 -58 -42 -58 -62 0 -10 -7 -18 -17 -18 -12 0 -14 -3 -6
-8 21 -14 -20 -83 -97 -160 -14 -14 -17 -20 -7 -12 16 12 19 11 24 -8 3 -12
10 -22 15 -22 5 0 7 -4 3 -9 -3 -6 0 -13 8 -18 7 -4 18 -21 25 -37 11 -25 16
-28 45 -22 l32 5 -28 -15 c-15 -8 -31 -12 -36 -9 -5 3 -23 30 -41 61 -17 31
-33 54 -36 51 -6 -6 76 -137 86 -137 15 0 490 241 490 248 0 4 -7 16 -15 26
-8 11 -15 27 -15 35 1 9 42 77 93 151 l92 135 90 47 90 47 186 1 187 0 353
178 354 177 58 85 c32 47 68 90 81 97 29 15 66 72 66 101 0 12 23 55 50 95 28
41 50 81 50 90 0 28 -18 28 -25 -1 -4 -15 -9 -22 -12 -15 -2 7 1 21 7 33 9 17
7 27 -10 54 -21 34 -50 64 -50 52z m4 -225 c-15 -23 -29 -40 -31 -37 -5 5 50
85 55 81 2 -2 -9 -22 -24 -44z m-55 -128 c-17 -23 -41 -43 -50 -43 -10 0 43
57 55 59 5 0 2 -7 -5 -16z m-445 -77 c-3 -8 -12 -17 -19 -20 -19 -7 -31 14
-14 25 21 13 39 11 33 -5z m329 -51 c-3 -9 -8 -14 -10 -11 -3 3 -2 9 2 15 9
16 15 13 8 -4z m-383 -55 c0 -12 -28 -25 -36 -17 -9 9 6 27 22 27 8 0 14 -5
14 -10z m249 -74 c-15 -13 -49 -25 -49 -17 0 5 8 12 18 14 24 6 36 8 31 3z
m-69 -36 c-8 -5 -19 -10 -25 -10 -5 0 -3 5 5 10 8 5 20 10 25 10 6 0 3 -5 -5
-10z m-100 -46 c0 -8 -19 -13 -24 -6 -3 5 1 9 9 9 8 0 15 -2 15 -3z m-50 -24
c0 -5 -5 -10 -11 -10 -5 0 -7 5 -4 10 3 6 8 10 11 10 2 0 4 -4 4 -10z m-160
-84 c0 -2 -7 -7 -16 -10 -8 -3 -12 -2 -9 4 6 10 25 14 25 6z m-40 -20 c0 -2
-7 -7 -16 -10 -8 -3 -12 -2 -9 4 6 10 25 14 25 6z m-80 -40 c0 -2 -7 -7 -16
-10 -8 -3 -12 -2 -9 4 6 10 25 14 25 6z m-40 -20 c0 -2 -7 -7 -16 -10 -8 -3
-12 -2 -9 4 6 10 25 14 25 6z m-720 -36 c0 -5 -4 -10 -10 -10 -5 0 -10 5 -10
10 0 6 5 10 10 10 6 0 10 -4 10 -10z m468 -5 c3 -3 -44 -5 -104 -4 -60 0 -101
3 -92 7 19 8 189 5 196 -3z m-308 -5 c0 -5 -4 -10 -10 -10 -5 0 -10 5 -10 10
0 6 5 10 10 10 6 0 10 -4 10 -10z m413 3 c-13 -2 -33 -2 -45 0 -13 2 -3 4 22
4 25 0 35 -2 23 -4z m60 0 c-7 -2 -19 -2 -25 0 -7 3 -2 5 12 5 14 0 19 -2 13
-5z m-776 -53 c2 -23 -19 -27 -36 -6 -9 11 -9 15 1 19 25 10 34 7 35 -13z
m313 10 c0 -5 -5 -10 -11 -10 -5 0 -7 5 -4 10 3 6 8 10 11 10 2 0 4 -4 4 -10z
m-356 -36 c3 -8 2 -12 -4 -9 -6 3 -10 10 -10 16 0 14 7 11 14 -7z m289 0 c-19
-10 -49 -42 -74 -80 -23 -36 -44 -62 -47 -59 -3 3 3 14 13 25 9 10 15 26 12
35 -4 8 -3 14 2 12 4 -1 27 17 50 41 22 23 49 42 58 42 11 0 6 -6 -14 -16z
m-305 -33 c3 -8 -1 -12 -9 -9 -7 2 -15 10 -17 17 -3 8 1 12 9 9 7 -2 15 -10
17 -17z m-168 -85 c0 -3 -4 -8 -10 -11 -5 -3 -10 -1 -10 4 0 6 5 11 10 11 6 0
10 -2 10 -4z m67 -20 c2 -2 0 -7 -6 -11 -6 -3 -11 -1 -11 6 0 8 -4 8 -15 -1
-12 -10 -15 -10 -15 3 0 11 7 15 21 12 12 -3 24 -6 26 -9z m-12 -56 c3 -5 1
-10 -4 -10 -6 0 -11 5 -11 10 0 6 2 10 4 10 3 0 8 -4 11 -10z m195 -31 c0 -5
-4 -9 -10 -9 -5 0 -10 7 -10 16 0 8 5 12 10 9 6 -3 10 -10 10 -16z m55 1 c-3
-5 -12 -10 -18 -10 -7 0 -6 4 3 10 19 12 23 12 15 0z m-424 -33 c-1 -12 -15
-9 -19 4 -3 6 1 10 8 8 6 -3 11 -8 11 -12z m-39 -89 c-7 -7 -12 -8 -12 -2 0
14 12 26 19 19 2 -3 -1 -11 -7 -17z m422 -18 c-6 -5 -24 21 -24 34 0 6 6 1 14
-10 8 -10 12 -21 10 -24z m-4 -24 c0 -2 -7 -7 -16 -10 -8 -3 -12 -2 -9 4 6 10
25 14 25 6z m-440 -47 c0 -5 -7 -9 -15 -9 -8 0 -15 7 -15 15 0 9 6 12 15 9 8
-4 15 -10 15 -15z m339 -3 c-2 -2 -15 -9 -29 -15 -24 -11 -24 -11 -6 3 16 13
49 24 35 12z m-314 -46 c-6 -9 -9 -9 -16 1 -10 17 0 34 13 21 6 -6 7 -16 3
-22z m122 -29 c9 -15 7 -20 -20 -32 -31 -14 -32 -14 -32 11 0 49 27 61 52 21z"/>
<path d="M11683 2082 c-49 -5 -58 -24 -25 -53 63 -54 74 -53 117 13 16 26 16
28 0 34 -10 4 -27 2 -37 -5 -11 -7 -17 -8 -14 -2 9 13 -3 17 -41 13z m17 -38
c0 -8 -5 -12 -10 -9 -6 4 -8 11 -5 16 9 14 15 11 15 -7z"/>
<path d="M11519 2053 c-1 -10 -2 -27 -3 -37 -1 -10 -10 -22 -21 -27 -17 -6
-17 -8 -2 -8 9 -1 17 -8 17 -17 0 -12 -3 -14 -13 -6 -7 6 -23 10 -35 9 -26 -2
-19 -11 10 -12 11 0 26 -9 32 -20 6 -11 17 -24 25 -29 11 -7 11 -10 0 -17 -18
-11 -32 -11 -24 0 3 5 -7 16 -23 23 -22 12 -30 12 -40 2 -8 -9 -8 -13 3 -17
19 -8 7 -47 -15 -47 -10 0 -17 7 -17 18 0 35 -3 42 -20 42 -17 -1 -17 -1 -1
-14 13 -10 15 -15 6 -24 -9 -9 -7 -16 10 -28 18 -13 21 -19 11 -30 -6 -8 -19
-13 -28 -13 -14 1 -14 2 1 6 16 4 16 6 0 24 -9 10 -22 19 -29 19 -7 0 -13 9
-13 19 0 19 -22 23 -37 6 -4 -4 -3 -5 4 -1 6 3 15 1 19 -5 4 -7 3 -9 -3 -6 -6
4 -24 -3 -39 -15 -19 -15 -24 -17 -15 -5 18 23 10 30 -20 18 -13 -5 -21 -10
-17 -10 4 -1 -4 -13 -17 -27 -32 -34 -33 -72 -2 -84 17 -7 18 -9 4 -9 -14 -1
-16 -5 -7 -20 5 -11 10 -33 10 -48 0 -16 4 -33 9 -39 5 -5 11 -20 13 -34 3
-24 6 -25 72 -24 58 2 74 6 110 31 36 26 41 33 38 64 -2 26 0 30 8 19 9 -13
11 -13 20 0 13 20 13 -1 -1 -37 -14 -38 -5 -27 57 69 30 46 52 89 49 96 -3 7
-1 10 4 7 13 -8 41 34 34 51 -3 8 0 28 7 45 11 26 11 33 -3 46 -13 14 -19 14
-32 3 -12 -10 -13 -15 -4 -21 6 -4 -2 -6 -19 -5 -52 2 -94 62 -51 74 11 3 11
1 -1 -8 -12 -9 -10 -11 12 -7 15 2 26 1 24 -2 -7 -12 21 -29 34 -21 11 7 10
14 -5 37 -23 36 -54 63 -72 63 -7 0 -14 -8 -14 -17z m-1 -218 c-3 -3 -9 2 -12
12 -6 14 -5 15 5 6 7 -7 10 -15 7 -18z m82 5 c0 -5 -7 -7 -15 -4 -8 4 -12 10
-9 15 6 11 24 2 24 -11z m-310 -30 c0 -5 -7 -7 -15 -4 -8 4 -15 8 -15 10 0 2
7 4 15 4 8 0 15 -4 15 -10z m-53 -30 c-1 -11 -7 -20 -14 -20 -11 0 -11 5 -3
20 6 11 13 20 15 20 2 0 3 -9 2 -20z m186 -54 c3 -8 3 -17 -1 -20 -3 -4 -8
-19 -10 -34 -4 -32 -2 -29 -27 -34 -16 -2 -20 3 -20 24 -1 15 6 30 13 33 8 3
12 8 9 12 -8 7 11 33 23 33 4 0 10 -6 13 -14z"/>
<path d="M11427 2004 c-4 -4 -7 -11 -7 -15 0 -10 24 -5 28 6 4 12 -12 18 -21
9z"/>
<path d="M11552 1960 c7 -10 14 -18 15 -16 6 6 -9 36 -18 36 -5 0 -4 -9 3 -20z"/>
<path d="M11322 1961 c-10 -6 -11 -13 -1 -34 7 -15 16 -27 21 -27 11 0 10 18
-2 25 -6 4 -8 15 -5 26 7 21 6 22 -13 10z"/>
<path d="M454 1924 c38 -19 75 -33 83 -30 8 3 11 1 8 -4 -3 -5 89 -57 204
-115 l211 -105 335 0 c184 0 335 -2 335 -5 0 -2 -125 -202 -278 -442 -154
-241 -282 -446 -286 -457 -5 -14 -2 -17 9 -12 9 3 13 2 10 -4 -3 -6 -14 -10
-24 -10 -12 0 -34 -24 -60 -66 -22 -36 -41 -67 -41 -70 0 -2 44 -4 98 -4 l97
-1 571 238 572 238 -131 3 c-98 2 -133 -1 -139 -10 -6 -10 -10 -10 -16 -1 -5
8 -47 13 -124 15 l-117 3 94 145 c91 139 94 146 75 159 -19 13 -19 14 10 43
17 17 37 28 45 25 8 -4 21 7 34 29 27 46 27 49 -9 64 -17 7 -30 17 -30 22 0 5
10 3 23 -4 43 -24 57 -18 95 43 l37 59 236 0 237 0 51 80 c34 54 46 80 36 80
-8 0 -15 8 -15 18 0 26 11 34 27 21 15 -13 43 13 69 63 l14 28 -1050 0 c-928
0 -1050 -2 -1050 -15 0 -19 -29 -20 -36 0 -9 23 -65 19 -71 -5 -3 -11 -13 -20
-22 -19 -10 0 -11 2 -3 6 6 2 12 11 12 19 0 11 -20 14 -97 14 l-98 -1 69 -35z
m2313 -6 c-3 -8 -6 -5 -6 6 -1 11 2 17 5 13 3 -3 4 -12 1 -19z m-1086 -15 c9
-10 9 -14 2 -10 -7 5 -21 -1 -33 -13 -20 -20 -20 -20 -20 0 0 11 7 20 16 20 8
0 12 5 9 10 -10 17 12 11 26 -7z m-1057 -24 c-8 -13 -24 -1 -24 18 0 13 3 13
15 3 8 -7 12 -16 9 -21z m1331 -274 c39 -32 29 -32 -15 0 -19 14 -30 25 -24
25 5 -1 23 -12 39 -25z m-199 -123 c-16 -2 -32 0 -37 5 -5 5 7 7 29 4 34 -5
35 -6 8 -9z m-62 -271 c11 -4 15 -10 10 -13 -10 -6 -54 8 -54 17 0 7 21 5 44
-4z m-34 -61 c12 -8 12 -10 -5 -10 -11 0 -27 5 -35 10 -12 8 -12 10 5 10 11 0
27 -5 35 -10z m34 -122 c-3 -7 -19 -24 -36 -38 l-31 -24 18 27 c10 15 25 32
34 37 21 12 21 12 15 -2z m61 -158 c-3 -5 -11 -10 -16 -10 -6 0 -7 5 -4 10 3
6 11 10 16 10 6 0 7 -4 4 -10z m-258 -35 c0 -8 -6 -15 -12 -15 -6 0 -12 7 -12
15 0 8 6 15 12 15 6 0 12 -7 12 -15z"/>
<path d="M2901 1946 c-7 -8 -14 -23 -16 -35 -4 -22 2 -24 59 -24 26 1 28 -2
22 -30 -8 -38 -31 -65 -60 -69 -11 -2 -20 -9 -18 -16 1 -6 -3 -12 -9 -12 -7 0
-9 10 -5 25 4 14 2 25 -3 25 -5 0 -11 -10 -13 -22 -2 -12 -9 -24 -17 -26 -10
-3 -12 1 -8 17 8 32 -24 27 -44 -7 -9 -15 -133 -207 -276 -427 -142 -220 -276
-426 -295 -457 l-37 -56 92 -2 c51 -1 106 -3 122 -4 17 -2 35 0 40 3 18 10 35
9 41 -1 4 -7 9 -7 13 0 4 6 22 7 49 2 23 -4 45 -3 48 1 3 5 16 6 28 3 13 -3
40 -1 59 4 26 7 40 7 54 -2 23 -16 111 -18 138 -3 11 6 23 10 27 9 4 -1 5 4 2
12 -3 8 -1 17 5 21 7 3 11 -2 11 -14 0 -11 5 -23 10 -26 6 -3 10 -2 10 3 0 14
38 22 43 9 2 -6 22 -12 46 -12 34 0 43 3 47 20 5 22 51 29 51 8 0 -7 -4 -10
-8 -7 -4 2 -11 -1 -15 -8 -4 -7 -4 -10 1 -6 4 4 14 3 21 -3 8 -6 37 -9 73 -6
34 3 63 1 66 -4 4 -5 11 -9 16 -9 6 0 8 3 6 8 -6 9 44 9 58 0 6 -4 29 -4 52
-1 30 4 43 11 46 25 3 11 15 22 26 25 13 3 18 10 14 20 -4 11 -2 14 8 11 8 -3
14 -18 14 -36 1 -22 -3 -28 -11 -21 -7 6 -15 5 -22 -3 -8 -10 1 -13 44 -15 51
-2 53 -1 42 17 -10 15 -10 22 0 32 9 9 12 9 12 0 0 -6 7 -9 18 -5 13 5 14 3 6
-6 -7 -7 -10 -21 -7 -31 4 -16 9 -17 30 -9 18 6 30 6 39 -2 11 -9 18 -8 29 1
8 7 15 9 15 4 0 -5 5 -2 10 6 9 13 10 13 10 0 0 -12 12 -15 58 -14 84 1 82 0
72 34 -5 17 -8 30 -7 31 16 6 37 5 37 -2 0 -6 5 -7 11 -3 8 5 10 -1 7 -20 -4
-18 -1 -26 8 -26 8 0 14 -4 14 -10 0 -5 4 -10 8 -10 12 0 28 41 26 67 0 12 5
24 12 27 8 3 14 0 14 -7 0 -7 29 33 65 88 l64 100 -619 3 c-341 1 -620 5 -620
10 0 4 21 39 46 77 l45 70 516 5 c499 5 516 6 527 25 6 10 17 25 23 33 11 11
13 9 11 -12 -1 -15 -11 -28 -23 -32 -12 -5 19 -9 79 -11 55 -2 103 0 109 6 5
5 42 60 82 122 l72 114 -614 5 -615 5 51 78 51 77 617 0 618 1 92 144 92 145
-741 0 c-408 0 -739 -2 -737 -4 2 -2 18 -6 36 -9 42 -7 53 -15 46 -32 -3 -9
-19 -15 -40 -15 -27 0 -37 6 -51 30 l-17 30 -111 0 c-83 0 -114 -4 -123 -14z
m366 -48 c-3 -7 -5 -2 -5 12 0 14 2 19 5 13 2 -7 2 -19 0 -25z m5 -130 c-18
-18 -35 27 -20 52 13 20 13 20 22 -10 6 -20 5 -35 -2 -42z m898 -58 c11 -7 1
-9 -33 -8 -29 1 -43 4 -35 9 18 12 50 11 68 -1z m-1277 -23 c7 -18 -26 -55
-57 -63 -14 -3 -26 -10 -26 -14 0 -4 -18 -12 -39 -17 -33 -9 -41 -8 -55 9 -15
17 -15 18 7 12 15 -3 36 2 57 15 37 22 48 50 22 52 -23 1 21 13 58 16 16 1 30
-4 33 -10z m377 -243 c0 -8 -4 -14 -10 -14 -5 0 -10 9 -10 21 0 11 5 17 10 14
6 -3 10 -13 10 -21z m20 -38 c0 -2 -7 -9 -15 -16 -12 -10 -15 -10 -15 4 0 9 7
16 15 16 8 0 15 -2 15 -4z m160 -361 c-7 -9 -15 -13 -17 -11 -7 7 7 26 19 26
6 0 6 -6 -2 -15z m-790 -49 c0 -11 -19 -15 -25 -6 -3 5 1 10 9 10 9 0 16 -2
16 -4z m1287 -48 c-3 -8 -6 -5 -6 6 -1 11 2 17 5 13 3 -3 4 -12 1 -19z m-457
-14 c0 -8 -4 -12 -10 -9 -5 3 -10 10 -10 16 0 5 5 9 10 9 6 0 10 -7 10 -16z
m67 10 c-3 -3 -12 -4 -19 -1 -8 3 -5 6 6 6 11 1 17 -2 13 -5z m-1007 -23 c0
-5 -7 -12 -16 -15 -14 -5 -15 -4 -4 9 14 17 20 19 20 6z m720 -11 c0 -5 -2
-10 -4 -10 -3 0 -8 5 -11 10 -3 6 -1 10 4 10 6 0 11 -4 11 -10z m285 -8 c-3
-3 -11 0 -18 7 -9 10 -8 11 6 5 10 -3 15 -9 12 -12z m239 -12 c-9 -16 -21 -30
-27 -30 -7 0 -6 4 3 10 8 5 11 10 6 10 -5 0 -1 9 9 20 25 27 26 25 9 -10z
m-599 10 c-3 -5 -10 -10 -16 -10 -5 0 -9 5 -9 10 0 6 7 10 16 10 8 0 12 -4 9
-10z m252 4 c-3 -3 -12 -4 -19 -1 -8 3 -5 6 6 6 11 1 17 -2 13 -5z m302 -49
c0 -11 -3 -14 -6 -7 -2 6 -10 12 -16 12 -7 0 -13 11 -13 24 -2 22 -1 23 17 8
11 -9 19 -26 18 -37z m-1167 31 c3 2 8 -2 12 -11 4 -10 2 -14 -5 -9 -6 4 -16
0 -21 -7 -8 -11 -9 -11 -5 2 3 9 0 23 -6 30 -10 11 -9 11 4 1 9 -6 18 -9 21
-6z m78 -10 c0 -3 -4 -8 -10 -11 -5 -3 -10 -1 -10 4 0 6 5 11 10 11 6 0 10 -2
10 -4z m217 -18 c-3 -8 -6 -5 -6 6 -1 11 2 17 5 13 3 -3 4 -12 1 -19z m796 15
c-7 -2 -19 -2 -25 0 -7 3 -2 5 12 5 14 0 19 -2 13 -5z"/>
<path d="M4405 1402 c-251 -387 -358 -560 -350 -567 11 -12 115 -14 115 -3 0
3 -12 11 -27 16 -16 6 -23 11 -16 11 7 1 24 12 39 26 35 32 64 34 56 3 -3 -12
-7 -17 -10 -10 -5 17 -19 15 -42 -8 -16 -16 -17 -20 -5 -20 8 0 15 -4 15 -10
0 -5 5 -10 11 -10 5 0 7 5 4 10 -3 6 6 15 20 20 35 13 48 13 39 -2 -5 -7 -3
-8 7 -2 8 4 24 7 37 5 14 -1 22 3 22 13 0 13 4 13 37 0 34 -15 36 -15 24 0 -7
9 -9 16 -4 16 5 0 16 -9 26 -20 16 -19 16 -20 -7 -20 -13 0 -28 -6 -34 -12 -8
-10 0 -13 34 -14 25 -1 41 2 35 5 -6 4 -6 12 -2 20 7 11 11 9 20 -6 7 -15 20
-20 40 -19 38 2 62 23 42 35 -10 7 -8 11 10 16 31 10 52 37 36 47 -8 5 -7 8 4
8 10 0 54 59 115 155 l98 155 85 0 86 -1 150 -130 c83 -72 177 -154 210 -183
66 -57 93 -76 81 -58 -4 7 -2 12 3 12 6 0 11 -9 11 -21 0 -11 5 -17 10 -14 6
3 10 0 10 -8 0 -13 33 -15 206 -15 171 -1 204 1 194 13 -7 9 -8 15 0 20 15 9
30 -3 23 -20 -3 -9 1 -15 11 -15 10 0 13 6 10 15 -4 8 -1 15 5 15 6 0 11 -5
11 -11 0 -5 5 -7 10 -4 6 3 10 2 10 -4 0 -7 8 -7 27 0 14 5 29 6 32 2 3 -4 27
-9 53 -10 l47 -2 53 82 c30 45 90 139 134 209 l79 127 85 1 85 0 230 -199
c127 -110 233 -197 238 -194 4 2 6 -1 5 -9 -2 -10 20 -13 99 -14 96 -1 102 0
93 17 -15 27 -11 37 5 15 9 -12 22 -17 35 -13 11 3 17 1 14 -4 -8 -14 37 -4
76 16 26 14 34 14 48 3 15 -12 16 -11 4 4 -8 9 -10 23 -6 29 9 16 35 -17 28
-36 -4 -11 1 -11 28 -1 18 6 38 14 43 18 17 10 145 58 145 53 0 -2 30 7 66 21
36 13 62 19 59 14 -4 -6 -17 -15 -28 -21 -12 -5 -29 -13 -37 -18 -8 -5 -30
-16 -47 -23 -18 -7 -33 -16 -33 -19 0 -11 48 -20 78 -14 25 5 25 5 5 -4 -13
-6 -23 -13 -23 -15 0 -9 75 -1 81 8 4 5 16 2 28 -6 11 -8 18 -18 14 -21 -3 -4
-1 -7 6 -7 7 0 11 6 8 14 -3 7 -1 18 5 24 6 6 11 23 12 38 1 38 26 44 27 7 1
-15 0 -38 0 -49 -3 -33 24 -35 54 -4 25 26 26 29 8 39 -10 6 -13 11 -6 11 12
0 28 -18 28 -34 0 -23 22 -13 32 14 10 27 9 30 -8 30 -10 0 -19 4 -19 9 0 4
11 6 25 3 19 -3 25 -11 25 -29 0 -13 4 -21 10 -18 5 3 13 -7 16 -22 7 -25 8
-25 15 -8 5 14 8 15 8 5 1 -9 10 -16 21 -16 22 0 27 12 8 19 -7 3 -4 5 8 4 23
-1 54 -27 33 -27 -7 0 -9 -3 -6 -6 4 -4 13 -1 22 6 10 8 15 9 15 1 0 -15 77
-14 83 2 4 9 6 9 6 0 1 -18 75 -17 90 0 6 8 7 18 3 22 -4 5 -1 5 6 1 10 -6 10
-11 1 -22 -9 -11 -7 -14 14 -14 14 0 28 6 30 13 4 8 8 9 14 1 11 -15 173 -16
173 -1 0 9 2 9 8 0 10 -15 62 -4 62 13 0 8 9 14 20 14 11 0 20 -4 20 -10 0 -6
10 -5 25 2 14 6 25 14 25 18 0 4 13 7 28 8 16 0 55 18 88 40 36 24 77 41 104
45 l45 7 -30 -17 c-39 -21 -48 -35 -30 -49 23 -17 18 -25 -10 -12 -13 6 -22
15 -18 21 4 6 1 7 -7 2 -10 -6 -12 -4 -7 8 4 11 2 14 -9 10 -16 -6 -19 -23 -4
-23 6 0 10 -11 10 -24 0 -20 -4 -23 -27 -20 -36 5 -97 -5 -88 -14 4 -4 12 -7
18 -7 7 -1 11 -6 10 -13 -2 -8 11 -12 38 -12 22 0 38 4 35 9 -3 5 1 12 10 15
23 9 27 8 20 -9 -3 -8 -1 -15 4 -15 6 0 10 4 10 8 0 5 11 15 25 22 14 7 25 19
25 26 0 7 8 10 21 7 19 -5 18 -7 -10 -20 -18 -9 -28 -20 -24 -29 7 -18 15 -18
58 0 19 8 35 12 35 9 0 -3 6 0 13 6 8 6 16 10 18 8 2 -1 1 2 -4 8 -5 6 -11 5
-15 -2 -6 -9 -12 -7 -25 7 -21 25 -21 27 -3 27 8 0 14 -4 13 -9 -1 -5 23 -11
53 -13 30 -2 49 -1 43 1 -10 4 -10 11 -2 26 7 13 14 17 18 10 5 -8 14 -7 29 4
l23 16 -25 19 c-13 10 -31 19 -40 19 -9 0 -16 5 -16 11 0 6 -9 8 -22 3 -13 -4
-36 -7 -51 -5 -17 1 -26 -3 -22 -9 4 -6 -1 -7 -11 -3 -12 4 -15 2 -12 -8 3 -9
16 -13 36 -11 23 1 35 -4 44 -18 7 -11 16 -20 21 -20 4 0 5 5 1 12 -4 7 -3 8
4 4 19 -11 14 -26 -7 -26 -11 0 -26 8 -33 18 -9 12 -23 17 -43 15 -49 -4 -59
4 -36 28 22 24 80 38 160 39 50 0 53 -1 35 -15 -19 -14 -19 -14 1 -15 30 0 42
11 80 71 l34 54 -624 3 -624 2 51 80 52 80 141 0 c77 0 293 0 480 0 l340 0
-38 31 c-20 17 -35 35 -32 40 9 14 25 11 25 -6 0 -8 5 -15 11 -15 5 0 7 5 3
12 -4 7 -3 8 5 4 6 -4 9 -11 6 -16 -8 -13 33 -33 52 -26 13 5 14 4 3 -9 -11
-13 0 -15 96 -15 60 0 119 3 130 6 26 7 42 38 40 78 -1 19 4 30 14 33 9 2 20
14 26 26 5 12 17 21 26 21 9 -1 15 5 13 15 -1 9 7 27 17 41 l20 25 -607 5
-607 5 51 78 51 77 601 0 601 0 -4 24 c-3 14 -1 31 3 38 6 9 9 6 9 -9 0 -25
15 -31 24 -10 3 6 3 -1 0 -18 -5 -25 0 -21 29 25 19 30 32 57 29 60 -3 3 -7
-1 -9 -7 -5 -15 -33 -17 -33 -3 0 6 6 10 14 10 8 0 24 14 36 30 12 17 25 28
30 25 4 -3 17 10 27 28 17 28 18 35 6 46 -8 7 -11 21 -8 32 6 19 -8 19 -695
19 l-702 0 16 -25 c9 -14 13 -25 8 -25 -5 0 -15 11 -22 25 -10 18 -16 22 -21
13 -7 -10 -11 -10 -21 0 -9 9 -112 12 -440 12 l-427 0 -441 -205 c-243 -113
-443 -205 -445 -205 -3 0 54 90 125 199 72 110 130 202 130 205 0 3 -208 6
-462 6 l-463 0 -439 -205 c-242 -113 -441 -204 -442 -202 -2 1 56 92 127 202
l130 200 -62 3 c-39 2 -65 -1 -69 -9 -6 -8 -9 -8 -14 0 -5 7 -64 11 -179 10
l-172 0 -360 -557z m712 503 c-4 -8 -17 -15 -29 -14 -22 1 -22 1 2 9 14 4 21
8 17 9 -5 1 -5 6 -2 12 10 15 19 3 12 -16z m2937 13 c-5 -7 -55 -85 -112 -173
-57 -87 -107 -166 -110 -175 -3 -8 -9 -17 -13 -20 -14 -10 -222 -335 -222
-347 0 -7 -4 -13 -8 -13 -4 0 -45 -58 -91 -130 -45 -71 -86 -130 -89 -130 -7
0 -513 449 -517 458 -2 7 1144 541 1161 542 5 0 5 -6 1 -12z m384 -28 c7 -11
9 -20 4 -20 -10 0 -32 22 -32 32 0 15 15 8 28 -12z m-1168 -76 c0 -8 -5 -12
-10 -9 -6 4 -8 11 -5 16 9 14 15 11 15 -7z m-1281 -366 c-122 -188 -232 -358
-244 -376 l-22 -32 -29 27 c-16 16 -102 93 -192 172 -89 79 -162 147 -162 151
0 7 863 409 868 404 2 -1 -96 -157 -219 -346z m3641 308 c0 -3 -4 -8 -10 -11
-5 -3 -10 -1 -10 4 0 6 5 11 10 11 6 0 10 -2 10 -4z m-5076 -237 c-8 -13 -30
-11 -43 4 -18 23 8 41 31 21 9 -9 15 -21 12 -25z m3414 -10 c-9 -6 -8 -13 6
-28 11 -12 25 -21 33 -21 7 0 13 -6 14 -12 0 -7 2 -26 4 -41 3 -25 2 -27 -12
-15 -9 7 -19 12 -22 11 -3 -2 -6 3 -6 10 -1 23 -16 57 -26 57 -6 0 -7 5 -4 10
3 6 1 10 -4 10 -12 0 -15 33 -4 43 3 4 12 2 20 -5 11 -9 11 -13 1 -19z m687
-129 c8 -13 -5 -13 -25 0 -13 8 -13 10 2 10 9 0 20 -4 23 -10z m-2345 -10 c0
-5 -5 -10 -11 -10 -5 0 -7 5 -4 10 3 6 8 10 11 10 2 0 4 -4 4 -10z m2260 -6
c0 -9 -5 -14 -12 -12 -18 6 -21 28 -4 28 9 0 16 -7 16 -16z m-3335 -24 c-4
-12 -9 -19 -12 -17 -3 3 -2 15 2 27 4 12 9 19 12 17 3 -3 2 -15 -2 -27z m966
-4 l24 5 -24 -11 c-27 -12 -51 -7 -51 11 0 8 4 8 13 1 7 -6 24 -9 38 -6z
m-191 -11 c0 -8 -4 -15 -10 -15 -5 0 -10 7 -10 15 0 8 5 15 10 15 6 0 10 -7
10 -15z m-563 -251 c-3 -3 -12 -4 -19 -1 -8 3 -5 6 6 6 11 1 17 -2 13 -5z
m2510 0 c-3 -3 -12 -4 -19 -1 -8 3 -5 6 6 6 11 1 17 -2 13 -5z m-76 -23 c-11
-7 -5 -10 20 -13 34 -3 34 -3 -24 -27 -32 -13 -60 -21 -63 -18 -8 7 49 64 66
66 13 1 13 -1 1 -8z m404 -31 c-3 -5 -10 -10 -16 -10 -5 0 -9 5 -9 10 0 6 7
10 16 10 8 0 12 -4 9 -10z m435 -34 c0 -3 -4 -8 -10 -11 -5 -3 -10 -1 -10 4 0
6 5 11 10 11 6 0 10 -2 10 -4z m-1205 -57 c-7 -11 -55 -12 -55 -1 0 4 5 13 12
20 13 13 52 -3 43 -19z m1625 11 c0 -5 -8 -10 -17 -10 -15 0 -16 2 -3 10 19
12 20 12 20 0z m-656 -15 c-4 -8 -8 -15 -10 -15 -2 0 -4 7 -4 15 0 8 4 15 10
15 5 0 7 -7 4 -15z m-72 -15 c7 -11 18 -20 25 -20 7 0 13 -4 13 -10 0 -5 -6
-10 -14 -10 -8 0 -16 -6 -19 -12 -2 -7 -2 -3 0 10 2 12 -1 22 -7 22 -6 0 -9 4
-5 9 3 6 -3 14 -12 20 -10 6 -12 11 -6 11 7 0 18 -9 25 -20z m-4102 -15 c-7
-8 -16 -15 -21 -15 -5 0 -1 8 9 18 20 22 31 19 12 -3z m1590 15 c0 -5 -4 -10
-10 -10 -5 0 -10 5 -10 10 0 6 5 10 10 10 6 0 10 -4 10 -10z m2135 0 c3 -5 12
-7 20 -4 10 4 12 0 8 -16 -5 -17 -8 -19 -17 -8 -6 7 -17 19 -25 26 -9 7 -10
12 -4 12 7 0 14 -4 18 -10z m-2030 -10 c-3 -5 -12 -10 -18 -10 -7 0 -6 4 3 10
19 12 23 12 15 0z m1082 -12 c-3 -8 -6 -5 -6 6 -1 11 2 17 5 13 3 -3 4 -12 1
-19z m-1637 -2 c0 -8 -6 -18 -12 -22 -7 -4 -10 -4 -6 1 4 4 0 14 -10 21 -16
12 -15 13 6 14 13 0 22 -6 22 -14z m397 -2 c2 -5 -6 -10 -17 -11 -11 -1 -20 4
-20 12 0 15 32 14 37 -1z m1313 1 c0 -8 -4 -15 -10 -15 -5 0 -7 7 -4 15 4 8 8
15 10 15 2 0 4 -7 4 -15z m-1193 -1 c-3 -3 -12 -4 -19 -1 -8 3 -5 6 6 6 11 1
17 -2 13 -5z m2170 -9 c0 -8 -7 -15 -15 -15 -12 0 -12 3 -2 15 7 8 13 15 15
15 1 0 2 -7 2 -15z m-2494 -19 c4 -9 -2 -13 -19 -13 -14 0 -24 5 -24 13 0 8 9
14 19 14 10 0 21 -6 24 -14z m111 -5 c15 -6 16 -9 5 -13 -8 -3 -20 1 -27 8
-14 15 -7 17 22 5z m2479 -5 c4 -10 1 -13 -8 -9 -8 3 -12 9 -9 14 7 12 11 11
17 -5z m347 10 c0 -2 -6 -9 -13 -15 -10 -8 -14 -7 -14 4 0 8 6 15 14 15 7 0
13 -2 13 -4z m-4480 -10 c0 -2 -7 -7 -16 -10 -8 -3 -12 -2 -9 4 6 10 25 14 25
6z m3047 -2 c-3 -3 -12 -4 -19 -1 -8 3 -5 6 6 6 11 1 17 -2 13 -5z m1033 2 c0
-3 -4 -8 -10 -11 -5 -3 -10 -1 -10 4 0 6 5 11 10 11 6 0 10 -2 10 -4z"/>
<path d="M9780 1941 c0 -11 -6 -22 -12 -24 -8 -4 -9 -6 -2 -6 7 -1 19 10 28
24 14 22 15 25 1 25 -8 0 -15 -9 -15 -19z"/>
<path d="M9795 1768 c-66 -105 -119 -195 -117 -199 1 -5 -2 -9 -7 -9 -11 0
-144 -210 -144 -227 0 -7 -4 -13 -9 -13 -10 0 -61 -80 -55 -86 7 -7 58 57 52
66 -3 4 2 10 10 14 8 3 15 13 15 23 0 13 3 14 8 6 11 -17 78 10 161 65 35 23
68 42 73 42 5 0 21 11 36 25 15 14 32 26 39 26 7 1 16 2 21 3 4 1 28 24 54 51
26 28 48 44 48 38 0 -7 -5 -13 -11 -13 -5 0 -7 -5 -4 -10 10 -16 25 -1 25 23
0 16 11 27 41 39 33 14 38 14 29 3 -7 -8 -18 -15 -25 -15 -7 0 -19 -8 -26 -17
-10 -11 -10 -14 -1 -9 6 4 12 4 12 -1 0 -12 -20 -40 -20 -29 0 6 -12 -2 -27
-16 -16 -14 -42 -33 -60 -42 -43 -21 -46 -29 -29 -70 12 -28 12 -34 0 -32 -7
1 -17 5 -20 9 -20 20 -142 -22 -128 -44 3 -5 -1 -6 -9 -3 -22 8 -90 -23 -84
-39 4 -10 -3 -12 -24 -9 -23 3 -37 -3 -66 -32 -21 -20 -32 -36 -25 -36 7 0 12
5 12 11 0 5 5 7 11 3 8 -4 -1 -14 -23 -25 -19 -10 -40 -25 -47 -33 -8 -9 -22
-16 -32 -16 -18 0 -59 -48 -59 -69 0 -6 -4 -11 -9 -11 -19 0 -21 -34 -4 -54
18 -21 18 -21 -3 -3 -21 17 -22 17 -49 -24 -21 -33 -24 -43 -13 -50 9 -6 7 -9
-9 -9 -13 0 -24 -8 -29 -22 -3 -12 -15 -30 -25 -41 -20 -22 -17 -39 6 -31 9 4
18 -1 21 -11 4 -9 13 -14 20 -11 8 3 18 -3 24 -14 9 -16 15 -18 36 -10 34 13
46 12 39 -2 -4 -7 0 -5 7 4 8 9 27 20 44 24 25 5 27 4 14 -7 -8 -8 -13 -13
-11 -12 2 2 10 -2 18 -9 21 -17 27 -1 9 26 -20 31 -21 42 -2 27 11 -9 15 -8
20 4 3 9 10 13 16 10 5 -3 10 -2 10 2 0 17 -72 67 -82 58 -3 -3 -13 4 -24 16
-18 20 -16 20 32 -4 27 -14 56 -32 63 -41 7 -8 26 -18 42 -21 17 -4 33 -13 36
-21 9 -24 -2 -25 -25 -4 -12 12 -22 16 -22 10 0 -6 7 -13 15 -16 8 -4 12 -11
8 -17 -3 -6 -1 -7 5 -3 7 4 12 1 12 -7 0 -7 7 -14 15 -14 10 0 12 4 5 12 -12
15 -3 25 24 25 15 0 17 -3 8 -9 -19 -12 8 -22 38 -14 16 4 18 8 8 14 -9 6 -6
8 9 6 12 0 20 -4 17 -8 -2 -4 0 -11 6 -14 6 -4 9 -1 8 6 -2 8 17 12 63 14 36
1 70 4 75 7 11 7 35 -17 27 -26 -10 -10 -25 -7 -18 4 3 6 1 10 -4 10 -6 0 -11
-7 -11 -16 0 -9 7 -14 18 -12 9 1 22 -1 28 -5 7 -4 14 0 18 8 3 8 0 15 -6 15
-6 0 -8 3 -5 6 4 4 13 1 21 -5 8 -7 19 -10 25 -7 5 3 11 -1 15 -9 3 -8 13 -15
23 -14 16 0 16 2 -2 10 -16 7 -13 8 13 4 23 -3 31 -1 26 6 -4 7 -1 10 7 7 13
-5 106 39 137 64 8 7 21 13 29 14 28 4 26 14 -2 14 -16 0 -25 3 -22 7 4 3 2
12 -4 20 -7 8 -8 13 -1 13 12 0 24 54 16 75 -3 8 -11 12 -18 8 -6 -4 -5 1 3
10 13 16 2 17 -148 17 -88 0 -161 2 -161 5 0 3 29 52 65 108 67 106 75 127 50
127 -7 0 -18 7 -23 15 -4 9 -18 17 -30 18 -12 1 -22 7 -22 14 0 11 6 10 30 -2
17 -9 30 -20 30 -26 0 -6 4 -8 9 -4 5 3 12 1 16 -5 3 -5 10 -10 15 -10 8 0 78
107 83 127 1 4 12 18 24 31 12 13 25 34 29 45 4 11 15 30 25 41 11 11 19 26
19 33 0 31 31 8 71 -54 24 -36 47 -71 52 -77 9 -14 27 12 20 30 -2 7 1 22 7
34 10 18 9 21 -1 15 -9 -6 -11 -3 -6 8 3 9 2 27 -3 39 -5 13 -9 21 -10 18 -8
-28 -7 -39 3 -33 8 5 8 2 0 -9 -7 -8 -10 -18 -6 -21 3 -4 2 -7 -4 -7 -6 0 -10
19 -9 44 0 24 4 42 8 40 16 -10 48 -12 48 -3 0 5 6 9 14 9 8 0 16 5 18 11 2 6
16 12 31 12 16 0 27 5 27 13 0 15 21 15 32 -1 5 -6 8 -3 8 7 0 10 14 22 34 29
19 7 37 21 39 31 3 10 1 16 -4 12 -5 -3 -9 -1 -9 5 0 9 -96 9 -132 -1 -37 -9
-79 -49 -73 -68 7 -21 -12 -37 -27 -22 -6 6 -17 8 -24 5 -8 -3 -21 0 -28 7
-11 9 -29 8 -75 -1 -34 -6 -61 -16 -61 -21 0 -5 -4 -6 -10 -3 -18 11 -11 25
13 25 13 0 27 3 31 7 14 14 86 31 92 22 12 -20 45 -7 84 32 41 42 52 47 107
48 22 1 42 12 67 36 20 19 44 35 54 35 41 1 45 16 17 59 l-28 41 -316 0 -316
-1 -120 -191z m568 -58 c-3 -12 -8 -19 -11 -16 -5 6 5 36 12 36 2 0 2 -9 -1
-20z m-188 -70 c3 -5 1 -10 -4 -10 -6 0 -11 5 -11 10 0 6 2 10 4 10 3 0 8 -4
11 -10z m-55 -24 c-7 -7 -13 -7 -20 0 -6 6 -3 10 10 10 13 0 16 -4 10 -10z
m160 -11 c0 -10 -40 -10 -43 0 -4 8 3 10 19 7 13 -2 24 -6 24 -7z m-225 -5 c3
-5 1 -10 -4 -10 -6 0 -11 5 -11 10 0 6 2 10 4 10 3 0 8 -4 11 -10z m105 0 c0
-5 -4 -10 -10 -10 -5 0 -10 5 -10 10 0 6 5 10 10 10 6 0 10 -4 10 -10z m-88
-82 c-6 -6 -12 -6 -17 3 -5 8 -4 10 3 5 7 -4 12 0 13 11 0 12 2 13 6 5 3 -8 1
-18 -5 -24z m-712 -518 c9 -17 8 -20 -12 -20 -17 0 -19 3 -9 9 7 5 10 14 7 20
-4 6 -5 11 -2 11 3 0 10 -9 16 -20z m680 -90 c0 -5 -5 -10 -11 -10 -5 0 -7 5
-4 10 3 6 8 10 11 10 2 0 4 -4 4 -10z m-740 -9 c0 -12 -20 -25 -27 -18 -7 7 6
27 18 27 5 0 9 -4 9 -9z m693 -8 c-7 -2 -19 -2 -25 0 -7 3 -2 5 12 5 14 0 19
-2 13 -5z m-613 -38 c-7 -8 -16 -15 -21 -15 -5 0 -9 7 -9 15 0 9 9 15 21 15
18 0 19 -2 9 -15z"/>
<path d="M11670 1925 c0 -8 5 -15 10 -15 6 0 10 7 10 15 0 8 -4 15 -10 15 -5
0 -10 -7 -10 -15z"/>
<path d="M11283 1913 c4 -3 -1 -12 -11 -19 -9 -7 -14 -15 -11 -19 4 -3 13 1
22 9 8 8 18 12 23 8 5 -4 2 1 -5 11 -7 9 -16 17 -19 17 -3 0 -2 -3 1 -7z"/>
<path d="M10600 1851 c0 -5 -11 -12 -24 -15 -27 -7 -56 -32 -56 -48 0 -5 6 -8
14 -5 8 3 16 1 18 -5 3 -7 17 -8 42 -4 29 6 36 10 27 19 -6 6 -11 18 -10 27 0
13 1 13 6 0 7 -17 29 -40 38 -40 3 0 -4 18 -16 40 -21 37 -39 52 -39 31z"/>
<path d="M10640 1728 c0 -5 -12 -7 -27 -6 -20 2 -27 -1 -25 -11 2 -11 -6 -12
-35 -8 -24 4 -33 3 -24 -3 12 -7 10 -10 -10 -15 -14 -3 -38 -19 -53 -36 -15
-16 -36 -29 -47 -29 -10 0 -19 -5 -19 -11 0 -7 -12 -23 -26 -36 -21 -19 -24
-26 -14 -38 7 -8 9 -15 4 -15 -5 0 -10 -14 -11 -31 -1 -17 -7 -37 -13 -43 -7
-9 19 -55 93 -164 56 -84 107 -152 114 -152 6 0 18 8 25 18 7 10 31 31 53 47
22 17 43 34 47 40 4 5 8 7 8 2 0 -12 52 19 87 52 18 17 38 31 45 31 30 1 53
31 57 73 1 4 7 6 13 5 21 -5 20 37 -2 63 -17 20 -19 21 -13 4 6 -18 5 -18 -10
-6 -18 15 -24 46 -6 36 6 -4 -27 49 -72 116 -72 109 -86 124 -111 125 -15 1
-28 -3 -28 -8z m187 -384 c-3 -3 -12 -4 -19 -1 -8 3 -5 6 6 6 11 1 17 -2 13
-5z"/>
<path d="M11077 1570 c-60 -94 -91 -150 -82 -150 8 0 15 -4 15 -9 0 -11 78 8
103 24 10 7 26 11 37 8 10 -3 21 0 24 6 4 6 14 11 23 11 31 0 53 40 47 84 -4
23 -10 45 -15 51 -5 5 -9 21 -9 36 0 15 -7 34 -15 43 -8 8 -15 19 -15 25 0 36
-29 3 -113 -129z"/>
<path d="M11426 1510 c-22 -10 -63 -21 -93 -25 -29 -3 -51 -10 -48 -15 2 -4
-3 -18 -13 -31 -26 -34 -32 -55 -19 -68 8 -8 7 -11 -5 -11 -9 0 -20 5 -23 10
-10 16 -25 12 -25 -7 0 -14 -2 -15 -12 -4 -10 11 -10 14 0 18 19 7 14 20 -10
26 -12 4 -29 0 -38 -7 -8 -7 -28 -13 -45 -14 -28 -1 -29 -1 -11 13 25 19 15
19 -28 1 -19 -8 -38 -21 -43 -30 -6 -11 -24 -17 -58 -17 -69 -2 -109 -15 -120
-41 -6 -12 -24 -26 -41 -30 -17 -4 -39 -17 -49 -28 -10 -11 -24 -20 -30 -20
-8 0 -10 -10 -7 -25 3 -19 0 -25 -13 -25 -12 0 -16 -6 -12 -20 7 -28 -2 -25
-13 5 -5 14 -13 25 -18 25 -5 0 -19 -11 -32 -25 -13 -14 -29 -25 -36 -25 -6 0
-17 -6 -23 -14 -10 -12 3 -37 67 -134 44 -65 87 -126 96 -135 9 -8 16 -19 16
-23 0 -11 133 -204 141 -204 7 0 386 591 396 619 4 9 11 20 17 24 8 6 7 10 -2
14 -6 2 -9 9 -6 14 3 6 -2 19 -11 29 -11 12 -13 20 -5 25 6 4 8 15 5 26 -4 13
-2 19 9 19 23 0 29 -19 10 -37 -15 -16 -15 -17 2 -24 31 -11 37 -7 83 51 25
30 60 74 79 98 37 46 30 51 -32 22z m-166 -200 c0 -5 -5 -10 -11 -10 -5 0 -7
5 -4 10 3 6 8 10 11 10 2 0 4 -4 4 -10z m-566 -215 c3 -8 1 -15 -4 -15 -6 0
-10 7 -10 15 0 8 2 15 4 15 2 0 6 -7 10 -15z m70 -52 c9 -21 -10 -24 -29 -3
-16 18 -16 19 4 17 11 -1 23 -7 25 -14z m120 -168 c8 -21 -28 -39 -44 -21 -9
11 -7 17 7 25 24 14 30 14 37 -4z m20 -177 c-11 -17 -24 -6 -24 19 0 26 1 26
14 8 8 -11 12 -23 10 -27z"/>
<path d="M9850 1463 c0 -7 -7 -10 -17 -7 -15 5 -15 3 1 -10 32 -26 47 -18 26
14 -6 9 -10 11 -10 3z"/>
<path d="M12772 1318 c-7 -7 -16 -13 -20 -13 -4 0 -68 -30 -142 -66 -164 -80
-169 -82 -186 -68 -12 9 -13 9 -8 -4 3 -8 12 -18 20 -21 11 -4 12 -10 2 -31
-6 -14 -15 -25 -20 -25 -5 0 -6 -4 -3 -10 3 -5 1 -10 -6 -10 -7 0 -10 -3 -6
-6 6 -6 -1 -17 -35 -55 -10 -10 -18 -21 -18 -24 0 -10 -65 -111 -89 -140 -14
-16 -32 -30 -38 -31 -30 -2 -34 -5 -27 -16 4 -7 3 -8 -4 -4 -6 3 -35 -6 -64
-21 -29 -14 -60 -30 -69 -34 -9 -4 -70 -6 -135 -4 l-119 4 -234 -117 -234
-117 59 -5 59 -4 -80 -6 c-44 -4 117 -7 357 -8 l438 -2 213 107 213 106 40 61
c21 34 65 87 96 118 43 42 58 65 58 85 0 17 21 58 55 107 30 44 55 83 55 88 0
9 -107 178 -113 178 -2 0 -9 -6 -15 -12z m28 -28 c12 -23 12 -24 -3 -11 -10 7
-17 20 -17 29 0 18 3 16 20 -18z m50 -79 c26 -41 29 -53 20 -70 -15 -29 -21
-26 -14 8 4 21 0 38 -13 58 -27 38 -35 53 -30 53 3 0 19 -22 37 -49z m-17
-127 c-9 -14 -18 -22 -21 -20 -3 3 1 12 7 20 7 8 10 20 6 25 -3 7 0 8 9 5 14
-5 13 -9 -1 -30z m-57 -80 c-4 -9 -9 -15 -11 -12 -3 3 -3 13 1 22 4 9 9 15 11
12 3 -3 3 -13 -1 -22z m-13 -65 c-22 -37 -53 -67 -53 -51 0 7 4 12 9 12 5 0
13 9 16 20 6 19 31 50 41 50 3 0 -3 -14 -13 -31z m-90 -88 c-85 -131 -100
-151 -130 -165 -18 -9 -33 -12 -33 -7 0 5 13 14 29 20 27 12 131 146 131 170
0 6 5 11 11 11 6 0 3 -12 -8 -29z m-243 -216 c0 -2 -63 -36 -140 -74 l-141
-70 -135 0 c-74 0 -133 3 -130 7 3 5 59 7 124 7 105 -1 119 0 115 14 -4 13 -3
13 5 2 10 -14 72 -7 72 8 0 4 35 23 78 41 42 18 93 42 112 52 38 20 40 20 40
13z m-627 -129 c7 2 26 0 42 -5 20 -6 -35 -10 -174 -10 -112 -1 -202 1 -200 4
3 2 74 5 157 6 101 2 152 6 153 13 0 7 2 6 5 -1 3 -7 11 -10 17 -7z"/>
<path d="M10665 1200 c3 -5 8 -10 11 -10 2 0 4 5 4 10 0 6 -5 10 -11 10 -5 0
-7 -4 -4 -10z"/>
<path d="M10198 1039 c-6 -63 -1 -86 20 -91 15 -4 247 113 268 135 4 4 -58 7
-138 7 l-145 0 -5 -51z"/>
<path d="M9219 868 c-6 -25 -6 -38 1 -38 12 0 20 29 10 35 -6 4 -10 5 -11 3z"/>
<path d="M7508 853 c-20 -2 -39 -10 -42 -18 -8 -21 63 -14 75 8 6 9 9 16 7 15
-2 -1 -19 -3 -40 -5z"/>
<path d="M9250 845 c0 -8 4 -15 10 -15 5 0 7 7 4 15 -4 8 -8 15 -10 15 -2 0
-4 -7 -4 -15z"/>
<path d="M9794 848 c-5 -7 -2 -8 6 -3 7 4 15 2 20 -5 5 -9 8 -8 13 2 6 17 -29
22 -39 6z"/>
<path d="M7910 830 c0 -5 4 -10 9 -10 6 0 13 5 16 10 3 6 -1 10 -9 10 -9 0
-16 -4 -16 -10z"/>
<path d="M9520 829 c0 -5 5 -7 10 -4 6 3 10 8 10 11 0 2 -4 4 -10 4 -5 0 -10
-5 -10 -11z"/>
<path d="M10470 755 c0 -8 7 -15 15 -15 12 0 15 -13 15 -60 0 -47 3 -60 15
-60 12 0 15 13 15 60 0 47 3 60 15 60 8 0 15 7 15 15 0 11 -12 15 -45 15 -33
0 -45 -4 -45 -15z"/>
<path d="M10580 695 c0 -60 3 -75 15 -75 10 0 15 11 16 33 l1 32 7 -30 c3 -16
13 -31 22 -33 12 -2 19 10 26 50 l10 53 2 -52 c2 -83 21 -63 21 22 0 68 -2 75
-19 75 -16 0 -21 -10 -27 -47 -7 -50 -15 -45 -28 20 -5 18 -13 27 -26 27 -18
0 -20 -7 -20 -75z"/>
</g>
</svg>
